<svg width="600" height="420" viewBox="0 0 600 420" fill="none" xmlns="http://www.w3.org/2000/svg">
  <defs>
    <linearGradient id="bg4" x1="0" y1="0" x2="600" y2="420" gradientUnits="userSpaceOnUse">
      <stop stop-color="#F6F0E8"/>
      <stop offset="1" stop-color="#E9D8C5"/>
    </linearGradient>
    <radialGradient id="skin4" cx="0" cy="0" r="1" gradientUnits="userSpaceOnUse" gradientTransform="translate(328 178) rotate(90) scale(180 200)">
      <stop stop-color="#F7DCC9"/>
      <stop offset="1" stop-color="#D5A27B"/>
    </radialGradient>
  </defs>
  <rect width="600" height="420" fill="url(#bg4)"/>
  <ellipse cx="312" cy="330" rx="185" ry="36" fill="#DCC1A1" opacity="0.4"/>
  <path d="M440 118C470 143 490 180 486 224C481 277 443 321 382 340C325 358 264 355 209 333C162 314 123 278 118 228C113 182 132 132 177 103C232 68 301 60 367 74C392 79 416 91 440 118Z" fill="url(#skin4)"/>
  <path d="M224 156C269 111 329 95 387 105C438 114 482 145 502 190C468 166 429 158 387 160C336 162 279 170 224 156Z" fill="#7C5648" opacity="0.75"/>
  <path d="M310 214C322 176 364 165 391 181C420 198 436 221 441 245C414 255 387 263 358 266C323 270 287 268 258 250C245 242 234 233 221 219C245 217 274 214 310 214Z" fill="#F4C5A3" opacity="0.82"/>
  <path d="M275 203C297 186 323 177 353 176C380 175 405 182 420 196" stroke="#B97D63" stroke-width="14" stroke-linecap="round" opacity="0.66"/>
  <circle cx="318" cy="213" r="7" fill="#362C2B"/>
  <circle cx="385" cy="213" r="7" fill="#362C2B"/>
  <path d="M330 244C343 255 359 256 374 247" stroke="#9D6A52" stroke-width="9" stroke-linecap="round"/>
  <path d="M176 156C210 141 248 137 281 145" stroke="#E1C7A6" stroke-width="7" stroke-linecap="round" opacity="0.7"/>
  <path d="M158 272C202 286 247 292 290 291" stroke="#E1C7A6" stroke-width="7" stroke-linecap="round" opacity="0.7"/>
</svg>
